<?xml version="1.0" encoding="UTF-8"?>
<svg width="1200pt" height="1200pt" version="1.1" viewBox="0 0 1200 1200" xmlns="http://www.w3.org/2000/svg"
    fill="currentColor">
    <path
        d="m628.22 836.39c3.9844 3.9844 9 5.8125 14.203 5.8125s10.219-2.0156 14.203-5.8125l108.19-108.19c7.4062 2.5781 15.609 3.9844 24.422 3.9844 52.406 0 125.39-45 181.78-101.39 75.422-75.422 130.6-180.42 84.797-226.4-45.984-45.984-150.98 9.4219-226.4 84.797-68.578 68.578-120.19 161.58-94.594 212.39l-106.59 106.59c-7.8281 7.8281-7.8281 20.438 0 28.219z" />
    <path
        d="m200.02 960c-11.016 0-20.016 9-20.016 20.016v20.016l-39.984-0.046875c-11.016 0-20.016 9-20.016 20.016s9 20.016 20.016 20.016h39.984v20.016c0 11.016 9 20.016 20.016 20.016h800.02c11.016 0 20.016-9 20.016-20.016v-20.016h39.984c11.016 0 20.016-9 20.016-20.016s-9-20.016-20.016-20.016h-39.984v-20.016c0-11.016-9-20.016-20.016-20.016h-39.984l-0.046875-265.55c-51.188 41.812-114.98 77.812-171 77.812-3.7969 0-7.5938-0.1875-11.203-0.42188l-52.594 52.594 9.1875 8.8125h41.391l28.406-12.422c7.5938-3.1875 16.406-1.5938 22.219 4.2188l21.422 21.422c7.7812 7.7812 7.7812 20.391 0 28.219-7.7812 8.0156-20.391 8.0156-28.219 0l-11.812-11.578-19.781 8.5781c-2.5781 0.98438-5.3906 1.5938-8.0156 1.5938h-53.578c-5.2031 0-10.219-2.0156-13.781-5.5781l-15.797-15-12 12c-11.391 11.391-26.391 17.578-42.422 17.578-4.7812 0-9.6094-0.79688-14.203-1.7812l-8.2031 3.75c-8.3906 3.9844-18.422 1.4062-24.188-5.8125l-14.016-18.375-46.219 30c-6.6094 4.4062-15.188 4.2188-21.797 0l-27.609-18.422-29.203 18.609c-4.5938 2.8125-10.219 3.7969-15.609 2.3906l-35.016-9-35.016 9c-1.7812 0.42188-3.4219 0.60938-5.0156 0.60938-9 0-17.016-6-19.406-15-2.8125-10.594 3.6094-21.609 14.391-24.422l39.984-10.219c3.1875-0.98438 6.6094-0.98438 9.9844 0l31.594 8.0156 32.578-20.578c6.6094-4.2188 15.188-4.2188 21.797 0.1875l27.422 18.188 50.578-33c2.3906-1.5938 5.0156-2.3906 7.7812-2.8125 1.7812-12.422 7.2188-24.188 16.781-33.609l18.609-18.609c-8.2031 3-17.391 0.60938-22.594-6.4219l-14.016-18.188-46.219 30c-6.6094 4.2188-15.188 4.2188-21.797-0.1875l-27.609-18.188-29.016 18.422c-4.7812 3-10.406 3.9844-15.797 2.5781l-35.016-9.1875-35.016 9.1875c-1.5938 0.42188-3.4219 0.60938-5.0156 0.60938-9 0-17.016-6-19.406-15-2.8125-10.594 3.6094-21.609 14.391-24.422l39.984-10.406c3.1875-0.79688 6.7969-0.79688 9.9844 0l31.594 8.2031 32.578-20.578c6.7969-4.4062 15.188-4.2188 21.797 0.1875l27.609 18 50.578-32.812c8.5781-5.5781 20.203-3.6094 26.578 4.5938l15.609 20.203 71.203-32.203c-2.8125-21.422 0.42188-44.203 7.7812-67.594l-21.797-14.203-50.578 32.812c-8.5781 5.5781-20.203 3.6094-26.578-4.5938l-15.609-20.203-72.422 32.812c-2.5781 1.2188-5.3906 1.7812-8.2031 1.7812-5.0156 0-9.9844-1.7812-13.781-5.3906l-22.031-21.141h-41.391l-28.406 12.422c-7.5938 3.4219-16.406 1.7812-22.219-4.2188l-21.422-21.609c-7.7812-7.7812-7.7812-20.391 0.1875-28.219 7.7812-7.7812 20.391-7.7812 28.219 0.1875l11.812 11.812 19.594-8.8125c2.4375-0.98438 5.2031-1.5938 8.0156-1.5938h53.578c5.2031 0 9.9844 2.0156 13.781 5.3906l18.188 17.391 74.578-33.797c8.3906-3.7969 18.422-1.4062 24 6l14.016 18.188 46.219-30c6.6094-4.4062 15.188-4.2188 21.797 0.1875l26.203 17.203c17.016-34.219 41.016-67.594 66.797-96.609l-22.219-5.8125-32.578 20.812c-6.6094 4.2188-15.188 3.9844-21.797-0.1875l-27.422-18.188-50.578 32.812c-8.8125 5.8125-20.391 3.7969-26.812-4.4062l-15.609-20.391-72.422 33c-2.5781 1.2188-5.3906 1.7812-8.2031 1.7812-5.2031 0-10.219-2.0156-14.016-5.5781l-21.984-21.188h-41.391l-28.406 12.609c-7.5938 3.1875-16.406 1.5938-22.219-4.2188l-21.422-21.422c-7.7812-7.7812-7.7812-20.578 0-28.406 7.7812-7.7812 20.391-7.7812 28.219 0l11.812 11.812 19.781-8.5781c2.5781-1.2188 5.3906-1.7812 8.0156-1.7812h53.578c5.2031 0 10.219 2.0156 13.781 5.5781l18.188 17.391 74.391-33.984c8.3906-3.7969 18.422-1.4062 24.188 6l14.016 18.188 46.359-29.766c6.6094-4.4062 15.188-4.4062 21.797 0l27.609 18.188 29.203-18.422c4.5938-3 10.406-3.7969 15.609-2.3906l35.016 9 31.406-8.0156c39.188-34.594 87.609-66.984 135-81.984l-0.046875-116.39h39.984c11.016 0 20.016-9 20.016-20.016v-20.016h39.984c11.016 0 20.016-9 20.016-20.016s-9-20.016-20.016-20.016h-39.984v-19.922c0-11.016-9-20.016-20.016-20.016h-799.97c-11.016 0-20.016 9-20.016 20.016v20.016l-39.984-0.046875c-11.016 0-20.016 9-20.016 20.016s9 20.016 20.016 20.016h39.984v20.016c0 11.016 9 20.016 20.016 20.016h39.984v720zm161.39-599.39 39.984-10.406c3.1875-0.79688 6.6094-0.79688 9.9844 0l31.594 8.2031 32.578-20.578c6.6094-4.2188 15.188-4.2188 21.797 0.1875l27.422 18 50.578-32.812c8.8125-5.5781 20.391-3.6094 26.812 4.5938l15.609 20.203 72.422-32.812c7.4062-3.4219 16.219-2.0156 22.219 3.7969l21.984 21h41.391l28.406-12.422c7.5938-3.4219 16.406-1.5938 22.219 4.2188l21.422 21.422c7.7812 7.7812 7.7812 20.391 0 28.219-7.7812 7.7812-20.391 7.7812-28.219 0l-11.812-11.812-19.781 8.8125c-2.625 0.98438-5.4375 1.5938-8.0156 1.5938h-53.578c-5.2031 0-10.219-2.0156-13.781-5.5781l-18.188-17.203-74.438 33.75c-8.3906 3.9844-18.422 1.4062-24.188-6l-14.016-18.188-46.219 30c-6.6094 4.4062-15.188 4.2188-21.797-0.1875l-27.609-18.188-29.203 18.422c-4.5938 3-10.219 3.9844-15.609 2.5781l-35.016-9-35.016 9c-1.7344 0.375-3.3281 0.5625-4.9219 0.5625-9 0-17.016-6-19.406-15-2.8125-10.594 3.5625-21.562 14.391-24.375z" />
</svg>