<?xml version="1.0" encoding="UTF-8"?>
<svg width="512pt" height="512pt" version="1.1" viewBox="0 0 512 512" xmlns="http://www.w3.org/2000/svg" fill="#9a5341">
    <path
        d="m248.49 66.547c-0.027344 0.18359-0.027344 0.52344-0.082032 0.53125-0.64453 0.10156-1.2969 0.15625-2.1016 0.23828-0.4375-1.1289-0.86328-2.2227-1.3242-3.4062-1.2773 0.76172-0.22656 2.1523-1.0547 3.0195-1.1523-0.53125-0.36328-2.0586-1.375-2.7852-0.58984 1.1602-0.015626 2.3438-0.38281 3.4531-0.26953 0.035156-0.51172 0.066406-0.80859 0.10547-0.53125-1.0898 0.17969-2.3828-0.53906-3.6719-1 0.89844 0.082031 4.0234-1.0898 3.8477-0.80469-0.35156-0.37891-1.1133-0.48438-1.6992-0.10938-0.59766 0.19922-1.3047-0.62109-1.8906-0.4375 1.2461 0.058594 2.5195-0.32812 3.8047-1.8008-0.75781-0.33594-2.5-1.3828-3.6523v3.7422c-1.8945-0.82031-0.625-2.4141-1.4336-3.668-0.078125 1.457-0.097656 2.0703-0.082031 3.4492-1.1562-0.011719-2.2539 0.17578-3.3281-0.64453 0.25391-1.9727 0.375-4.0078 0.82031-5.9688 0.53125-1.7969-0.80078-2.9102-1.9609-3.9766-1.0547-0.95703-1.8711-0.4375-2.9883 0.10938-0.99609 0.36328-1.3281 0.23047-1.8555-0.68359-0.82031-1.8242-2.9102-3.5703-2.0469-5.6992 3.1445-8.6797-1.957-10.312 1.0391-13.996 0.75391-1.0391 1.6406-2.0352 1.4453-3.4141-0.42578-16.707 18.016-26.598 32.98-24.422 17.852 1.9297 23.023 19.098 19.129 34.59-0.71484 2.5781-1.6211 5.0977-2.3945 7.6602-0.55859 1.8594-1.7305 3.2578-3.1562 4.4883-0.79688 0.91797-4.3711 1.7734-3.4922-0.45703 0.21094-0.73438 0.53125-1.4375 0.70312-2.1797 1.082-2.3398-0.78516-6.3242-3.418-3.4219 3.1328-0.79297 2.6953 0.89453 2.1914 3.1641-0.55078 2.5508-1.1797 5.082-1.6445 7.6484-1.125 6.8828 0.99609 7.8633-5.7148 12.227 1.4023 0.36328 2.168 0.09375 3.4414 0.14453 0.87891 0.16016 1.582 1.418 0.42188 1.8086-1.207 0.40234-2.3945 0.84766-3.6758 0.92578-0.50781 1.1992-0.45703 2.2734 0.33984 3.4141 0.84375-0.054688 1.7305-0.10547 2.6133-0.17188 0.80469-0.37891 2.043-0.03125 2.0469 0.6875 0.046874 0.59766-0.54297 1.1797-1.3867 1.3359-1.2266 0.45313-3.1992-0.12891-3.6797 1.418-0.25391 0.90234 0.26953 1.4297 0.89844 1.8672 1.1133 0.12891 4.0117-0.86719 4.1914 0.60547 0.11328 1.2539-1.9414 1.168-2.7734 1.4961-2.8711 0.58203-2.8633 0.66016-1.9648 3.4805 1.3164 0.046875 2.7656 0.015625 4.1094 0 0.82031 0.019531 1.1406 0.46875 0.96875 1.3398-1.1602 0.82812-2.582 0.85156-3.9961 1.0156 0.89453 1.1289 1.5898 1.5234 4.4023 2.5 0.023437 0.4375 0.054687 0.92188 0.078125 1.3359-1.7578 1.2773-3.9297 0.17188-5.6836 1.3164v1.4961c0.28125 0.52734 0.89844-0.14062 1.4062 0.49219 0.53516 0.66797 1.7266 0.59766 2.6797 0.14062 5.0391-2.4414 10.875-3.4531 16.328-1.8711 5.4414 0.98047 10.758 2.6602 16.277 3.1367 3.418 0.29297 6.8125 0.89844 10.215 1.3789 3.0625 0.23438 5.293 1.125 7.7109 2.9922 0.13672 0.089843 0.19922 0.29687 0.36328 0.55859-1.3398 1.1094-2.9336 1.5039-4.543 1.8203-1.3242-0.15234-2.7617-0.69141-4.0078-1.1836-3.2461-1.5703-10.352-2.0352-13.801-1.0703 2.3867 1.0898 4.75 1.5352 6.3594 3.5391 3.375 4.2109 3.2148 8.1172 3.5547 13.211 0.050781 1.0234 0.23828 2.1133-0.027344 3.0664-0.44922 1.6172-0.007813 2.957 0.58203 4.418 2.1758 5.1445-0.91016 7.7578 0.27734 9.6484 1.4727 2.5469 2.0039 5.5156 0.67578 8.2188-0.38281 0.81641-0.375 1.5312-0.28906 2.3633 0.18359 1.8008-0.070313 3.5586-0.72266 5.2656-1.0664 2.793-1.7227 5.7656-3.7109 8.0547 0.64844 3.7031 0.40625 7.0859-2.7227 9.5898 1.3125 4.7461-1.6641 8.7695-3.4961 12.867-5.0078 7.8828-11.922-4.0977-14.855-8.1328-3.7148-5.3477-6.8633-11.156-11.312-15.938-0.89062-1.0156-1.7305-2.0117-1.6758-3.5273 0.042969-2.1172-3.0078-2.5156-4.5781-2.6172-1.4961 0.99219-0.70703 4.6719 0.75391 5.3203 1.1328 0.58594 2.207 1.2891 3.3047 1.9453 0.67578 0.40234 0.67188 0.41016 1.3008 1.4297-0.69141 0.27734-1.207-0.24219-1.7734-0.34375-1.2695-0.09375-3.2227-1.4844-3.9883 0.13281-0.25 0.61328 0.015625 1.5234 0.62109 1.8633 1.6641 0.94141 3.5195 1.5273 5.2148 2.3828 0.93359 0.63672 0.72656 1.5078-0.30469 1.8477-1.3945 0.48828-2.6211-0.34375-3.6289-1.2266-1.832-0.97266-2.1602 1.0625-1.9492 2.4492 0.10547 1.9102 1.2695 3.0547 3.1641 3.1211 1.1562-0.17188 2.2617 0.42188 3.1094 1.1172 0.78125 0.74219 0.33984 1.8086-0.73047 1.9531-1.1719 0.16016-2.2773-0.15625-3.375-0.51953-1.4453-0.64063-2.4648 0.57812-2.4336 1.9023 0.019532 2.9219 3.2969 2.9531 5.4609 3.6484 0.90625 0.21875 2.5312 1.1367 2.0156 2.082-0.26562 0.5625-1.1055 1.0195-1.7852 0.85547-1.1758-0.26562-2.2344-0.98438-3.3633-1.3633-1.5-0.39453-2.9844 1.4609-1.4102 2.4883 0.91016 0.67969 1.9766 1.1562 3 1.6719 0.92578 0.67188 5.3047 1.5625 3.0625 3.0586-0.45312 0.24219-0.91406 0.41406-1.457 0.13672-0.91406-0.39844-1.9062-0.76953-2.8906-0.9375-2.9883-0.070312-2.2539 4.4805-0.61719 5.6719 0.96875 0.60938 2.2109 0.625 3.332 0.51953 1.4766-0.29687 3.375 2.4219 1.2148 2.6953-1.4922 0.050781-3.0742-0.10938-4.4375-0.73047-1.8203 1.2383-2.3008 2.6602-1.2227 4.5859 0.53516 1.0273 1.3164 1.6953 2.5977 1.5781 1.3906-0.15625 4.6758-0.20312 4.0469 1.9297-0.87891 1.4258-2.6289 0.14062-3.8789 0.039063-0.82031-0.14453-1.6133-0.20312-2.2812 0.57422-0.94922 1.1055-0.97656 1.8398 0.15625 2.7266 1.7422 1.0117 3.8438 1.3398 5.7227 2.0469 0.52734 0.20703 0.86719 0.58594 0.73438 1.1875-0.13672 0.62109-0.65625 0.78516-1.1914 0.71484-1.3203-0.16797-2.6367-0.39453-4.0742-0.61719-2.4805 1.8164-1.8633 3.4492 0.13672 5.3711 0.8125 1.1484 2.2578 0.45312 3.4141 0.66797 0.90625 0.10938 2.0703 0.66797 1.6875 1.7734-0.45703 1.582-2.7734 0.5625-3.9688 0.60938-0.69922-0.089844-1.3867-0.29688-1.9648 0.33984-0.66016 0.72656-1.1602 1.5352-1.293 2.5117-0.058594 0.41797 2.1367 3.4688 2.5352 3.4844 0.625 0.027344 1.2578-0.082032 1.8789-0.16406 1.5664-0.44922 3.668 1.9727 1.6641 2.7383-1.3633 0.27734-2.7852-0.003906-4.1367-0.26953-0.73828 0.86719-1.6953 1.5703-1.5742 2.75 0.14453 0.91406 1.9688 2.3555 2.9648 2.4102 1.3359 0.10156 4.2148-0.45703 3.9141 1.6914-0.10156 0.46875-0.75391 0.875-1.3477 0.80859-2.9688-0.042969-3.4727-1.6719-5.3516 1.4258 1.1992 1.4805 2.3906 2.9453 3.6211 4.4648 6.7852-0.99609 9.125-4.2344 14.02-8.2656 2.9258-2.1055 6.2227-3.1992 9.8477-3.2227 3.5312-0.13281 7.7109 0.054688 9.9688 3.1953 4.0977 6.1562-2.4141 16.062-4.5898 22.195-2.0859 5.4062-4.6562 10.977-4.6211 16.867 0.14844 3.8008-1.4648 6.6367-4.5508 8.75-2.5859 1.7695-5.2188 3.4609-7.5977 5.5352-1.832 1.5938-4.3047 1.4023-6.1562-0.10938-1.8438-1.5078-3.3945-3.3047-4.668-5.3281-1.1055-1.7578-0.66016-3.1484 1.2422-4.0156 6.4297-2.6523 2.4648-12.203-3.4102-12.512-1.3633 1.8281-3.0781 3.3359-3.9336 5.4648-0.65234 1.3711-2.5898 0.88672-3.8203 0.96094-0.79688-0.078126-1.3828-0.59766-1.6953-1.3906-0.80078-2.0195-2.4336-3.4102-3.7852-5.1133-5.1016 1.3477-8.6523 9.9375-2.7578 12.457 2.4258 0.88281 2.3906 2.8633 1.0703 4.4062-3.0391 3.3672-6.4492 8.9922-11.5 5.0234-3.1094-2.4336-6.6953-4.2695-9.6406-6.9375-1.8281-1.6133-2.75-3.6797-2.6367-6.1289 0.11719-2.5312-0.45703-4.9414-1.1523-7.3359-1.1016-3.793-2.0273-7.6641-3.9414-11.156-2.0352-3.6094-4.4883-6.9883-6.6328-10.539-2.2031-3.9961-1.1523-9.1367 3.0117-11.258 1.8398-1.1016 3.9141-1.6523 6-1.7891 5.3008-0.55859 11.016 0.25 15.191 3.8047 3.5469 3.1523 6.5938 5.793 11.492 6.4453 0.54688 0.09375 1.0039-0.042969 1.3242-0.55078 0.78125-1.2305 1.582-2.4531 2.5-3.875-0.50781-0.62891-1.0898-1.3477-1.5664-1.9336-1.3945-0.10938-4.9531 1.0156-5.0508-0.70703-0.023437-0.62891 0.37891-0.92969 0.91797-1.0547 0.49219-0.11328 1.0117-0.28516 1.4961-0.22656 2.3672 0.29688 3.3984-1.2656 4.3828-2.9141-0.78906-1.2148-1.3984-2.668-3.0859-1.9844-1.0938 0.39844-3.3086 0.18359-3.3008-1.1719 0.019532-0.63281 0.93359-1.582 1.6797-1.625 1.0078-0.11719 2.3555 0.82031 2.918-0.46094 0.28906-0.5625 0.63672-1.1055 1.0078-1.6211 0.88281-1.2305 0.63281-3.125-0.63281-3.8711-1.1992-0.45312-2.668 0.10938-3.9297 0.078125-2.1016 0.18359-1.832-2.5117-0.089843-2.6367 0.95312-0.074219 1.918-0.015625 2.8711-0.015625 0.84375-1.5273 3.1523-2.957 1.9531-4.8008-0.5-0.78516-0.98828-1.4336-2.1367-1.0938-1.0859 0.16406-4.0781 1.2109-4.3906-0.36328 0.69141-1.8203 4.3867-1.7617 5.9492-2.9375 2.6758-1.2891 0.72266-3.9648-1.4219-3.4766-1.4102 0.054688-3.3516 1.4609-4.1328-0.34375 0.46094-3.375 5.043-0.15625 6.293-2.7773 1.0742-1.832 0.82031-3.5469-0.71094-4.8789-1.332 0.035157-5.1953 1.6367-5.3047-0.36328-0.027344-0.87109 0.57031-1.6133 1.4727-1.707 1.3125-0.23047 3.1094 0.47656 3.9023-0.93359 1.3672-1.8867 2-4.168-0.55469-5.5078-0.87891 0.32422-1.8711 0.71484-2.8789 1.0547-1.1641 0.39453-1.1797 0.37109-2.2344-0.76172 0.5625-2.0547 6.3984-2.6328 7.0625-5.1328-0.80078-1.6992-0.97656-1.7734-2.5352-1.0977-0.76172 0.32813-1.5195 0.67578-2.2969 0.96094-0.85547 0.44922-1.8125-0.054688-2.1758-0.83203-0.11328-0.28125 0.16797-0.94141 0.46094-1.1172 1.4688-0.91016 3.1289-1.3984 4.8242-1.6875 1.4688-0.28125 1.5742-1.8477 1.7227-3.0703 0.10547-2.8281-2.5469-1.6367-4.1484-1.0742-1.3633 0.40625-1.5938 0.30078-2.4648-1.0039 1.5352-4.4727 6.9336 0.76562 6.4648-7.1094-0.78125-0.86719-1.5195-0.85547-2.2812-0.25-1.1055 1.0273-3.8594 1.9141-4.2734-0.26562 0.51562-0.84375 1.5156-1.0039 2.3555-1.3984 1.1523-0.53906 2.3398-1.0156 3.4648-1.6055 1.543-0.78516 0.35156-2.8711-1.0547-2.5469-1.1562 0.29297-2.293 0.64063-3.5273 0.99219-0.11328-0.83594 0.44141-1.1133 0.88672-1.4062 1.6289-1.2812 4.3711-1.8242 4.4609-4.2969 0.074219-1.125 0.66016-2.25-0.25781-3.3438-1.9688 0.36719-3.8633 1.0195-5.6445 2.2617 0.29297 1.5898-0.57422 2.7266-1.4492 3.9453-1.8242 2.543-3.5156 5.1797-5.2305 7.8008-3.0469 4.6523-6.0312 9.3438-9.1328 13.957-2.6953 3.5391-6.3125 8.4023-10.258 3.6562-1.875-2-2.4219-4.4766-2.8711-7.0586-1.1172 0.054687-1.625-0.69922-2.2734-1.4492-1.8125-2.0938-2.3281-5.2383-1.4766-8.4258-4.4844-3.9414-5.8633-8.9062-1.9609-13.148-2.1562-2.7539-3.8281-5.6445-1.8711-9.3711-4.2578-5.6523 0.98828-7.5938-0.29297-11.781-0.73047-2.3047-0.32031-4.6523 0.69922-6.875 0.19922-0.4375 0.39453-1.0391 0.25391-1.4492-0.59375-1.7109-0.035156-3.2695 0.4375-4.8555 0.26953-0.90625 0.44531-1.7305 0.19141-2.7656-0.85937-3.2266 1.1562-6.6562 3.2852-8.9922 0.94922-2.3242 3.1445-2.3711 5.082-2.543 3.543-0.50391 6.9531 0.71094 10.547 0.46484-0.44922-0.15625-0.88672-0.40234-1.3438-0.45312-2.4062-0.26172-4.7578-0.98438-7.2109-0.875-2.9492-0.88672-5.8672-0.85547-8.8867-0.46094-2.8594 0.24219-5.4961 1.0508-8.0117 2.375-0.82031 0.42969-1.6758 0.5625-2.5898 0.22656-1.3242-0.51562-2.6133-0.61328-3.793-1.5195 1.6055-1.7109 3.5-2.7148 5.6328-3.1641 2.9883-0.63281 5.9961-1.2031 9.0195-1.6133 6.2578-0.85156 12.375-2.3047 18.445-4 1.8359-0.51172 3.7109-0.90625 5.5391-1.4453 3.7656-0.43359 7.6523 0.59766 11.129 2.0039 0.97656 0.4375 1.9492 0.42969 3.2109 0.27734 0.25391-0.71875 0.37891-1.6562 0.43359-2.4648-1.4844-0.88281-3.2695-0.42188-5.1406-0.66797-0.027344-0.62109-0.058594-1.2109-0.085938-1.8203 1.582-0.5625 3.5703-0.27734 3.9219-2.6211-1.2695-0.058593-3.8281 0.12109-3.8594-1.375 0.089844-1.4531 2.6406-0.67187 3.7344-0.61719 2.168 0.039063 2.1523-1.7266 1.3359-3.3477-1.1172-0.1875-5.0625 0.027343-4.7188-1.6875 0.14453-1.2539 3.2695-0.52734 4.3164-0.70703 0.30859-0.46875 0.61719-0.93359 0.9375-1.4219-0.44922-0.53516-0.89062-1.0664-1.3672-1.6328-1.5078 0.21484-3.1406 0.76172-4.1953-0.98047 0.25-0.39062 0.44922-0.70703 0.64844-1.0234 1.5547-0.0625 3.1953 0.45703 4.6016-0.58203 0.12109-0.67969 0.22656-1.2891 0.35938-2.0312-1.7617 0.86719-3.4961 1.457-4.9062 2.6719-2.668 0.88672-5.2812 1.9023-8.1367 1.8867-2.0508 0.058594-4.1055 0.082032-6.1562 0.058594-4.5078-0.097656-0.44922-6.082-2.4453-8.5859-0.035156-0.054687-0.089844-0.12109-0.082032-0.17187 0.25391-1.4883-0.72656-2.6328-1.1992-3.9336 1.0586-0.9375 2.043-0.23047 2.8633 0.125 1.2031 0.52734 1.1445 0.66016 2.0273-0.16016 1.2617 0.17187 0.30078 1.7266 1.3242 2.0898 0.3125-0.41016 0.63672-0.83594 1.0117-1.332-0.22266-0.32422-0.42969-0.63281-0.68359-1 0.19922-0.015625 0.45703-0.097656 0.51172-0.027344 0.21484 0.27734 0.46094 0.58594 0.51562 0.91406 0.09375 0.54688-0.097656 1.168 0.69141 1.6211 0.082032-0.91406 0.15625-1.7422 0.23047-2.5547 1.7383-0.11719 0.30469 2.0312 1.9453 2.2422-0.066406-0.74219-0.125-1.4062-0.1875-2.1562 0.39062-0.21484 0.76172-0.41797 1.1094-0.60547 0.14062 0.13281 0.30078 0.23438 0.28516 0.27734-0.26953 0.79297-0.12891 1.4648 0.56641 2.125 0.75391-0.625 0.12891-1.5156 0.66797-2.2734 0.10547-0.023438 0.39062-0.085938 0.64453-0.14453 0.49609 0.59766-0.023437 1.5508 0.85156 1.8828 0.53906-0.62891-0.28516-1.8906 1.1094-2.2383 0.14453 0.54297 0.27344 1.0391 0.40625 1.5352 0.10547 0.007813 0.21094 0.015625 0.31641 0.023438 0.12109-0.4375 0.23828-0.87109 0.375-1.375 1.082-0.097656 1.8906-1.4766 3.4297-0.71484 0.125 0.41016 0.30078 0.99219 0.49219 1.6289 4.5078 0.98828 6.3008-4.8125 6.6289-8.2773-0.046875-2.4609-0.50781-4.7969-0.20312-7.3359-1.8398 0.38281-3.6328 1.2148-5.2148 2.4961-1.3047 0.94922-1.0859 2.668-0.91406 4.0898 0.29688 1.7852 0.30859 1.7812-1.3086 2.5859-1.7422 0.54688-1.6094 3.7617 0.40625 2.8398-0.29297 0.96094-1.1133 1.0234-1.9648 1.2617-0.75391-0.83984 0.20312-2.1953-1.0391-3.1016 0.12891 1.2461 0.23828 2.3047 0.36719 3.5078-0.41016-0.28906-0.62891-0.44141-0.85156-0.59766 0.14453-0.82812 0.20312-1.6367-0.47656-2.4609-0.44531 0.35547-0.85547 0.67578-1.2539 0.99219-0.17578-0.25781-0.37891-0.5625-0.64062-0.94531-0.96484 1.0781-0.22656 2.0117 0.085938 3 0.1875-0.44922 0.375-0.90234 0.57422-1.375 0.33203 0.38281 0.65625 0.73047 0.98438 1.082zm-31.223 80.68c1.3906 1.3086 3.1172 1.7969 4.7539 2.4883 1.2461 0.52734 2.2852 0.30859 3.4102-0.37891 4.4766-2.7344 9.2305-4.9141 14.059-6.9414 3.582-1.5039 7.1562-3.0273 10.727-4.5664 1.2734-0.54688 1.2891-0.85156 0.17969-2.0703-7.293 3.2617-14.766 7.1094-22.961 7.0273-1.2969 0.050782-2.7539-0.24219-3.9805 0.19531-2.1641 1.2305-4.3008 2.5-6.1875 4.2461zm80.914-3.5547c-2.5469-1.3672-5.0898-3.168-7.875-3.5469-2.7305 0.58984-5.4922 0.32422-8.2344 0.27344-6.5664-0.11328-12.449-2.9219-18.48-5.2891-0.13672 0.83203-0.24609 1.4844-0.35156 2.1172 9.4805 2.4961 18.602 6.0781 27.691 9.7109 2.6289 0.96484 5.1719-1.7656 7.25-3.2656zm-3.4453-22.066c-2.0273-0.92578-3.9062-1.832-5.8398-2.6211-0.38672-0.15625-0.99609 0.0625-1.4414 0.25-6.6445 2.6328-14.285 5.3828-21.184 2.0312-1.2305-0.60938-2.5234-1.1016-3.75-1.6328-0.76563 0.94141-0.76563 0.94141-0.82813 1.7773 7.7227 1.1992 15.074 4.7812 22.871 5.3828 3.6211-1.0312 7.2539-2.0625 10.172-5.1875zm4.3828 32.441c-2.2344-1.1641-5.5352-4.2305-7.7656-3.8047-5.8945 1.4141-11.91 0.22656-17.238-2.4414-2.5859-1.2305-4.9922-2.8359-7.5-4.2266-0.80469-0.44531-1.5625-1.0508-2.6992-1.1953 0.17188 2.6094 1.9023 2.1797 3.7188 3.2773 2.957 1.3555 5.8828 2.7891 8.8789 4.0508 5.4609 2.3047 11.145 4.082 16.344 6.9883 2.3945 1.2773 4.125-1.4297 6.2617-2.6484zm-80.293 2.1641c1.3477 1.5742 3.8242 2.6562 4.9805 3.0273 2.125 0.81641 2.8555-0.89844 4.4922-1.8594 4.1719-2.7305 8.625-4.9531 13.023-7.2773 2.8164-1.4883 5.5742-3.0859 8.375-4.6055 0.9375-0.51172 1.3398-1.2461 1.2031-2.4062-7.7344 4.4141-15.25 10.672-24.703 10.047-3.3945-0.50391-4.7695 1.2344-7.3711 3.0742zm33.5-34.348c0.054687-0.71484-0.1875-1.1484-0.53125-1.6875-10.219 5.1797-14.059 4.375-24.531 0.51953-1.5312 1.0742-3.1836 2.2383-4.9844 3.5 3.418 1.8164 7.0703 4.2812 10.98 3.2109 3.6953-1.1875 7.4062-2.3125 11.109-3.4766 2.5977-0.8125 5.1211-1.8828 7.957-2.0664zm-3.5156-83.492c-0.99219 0.078125-1.9922-0.14844-2.9453 0.50391-1.6055 1.1055-1.8711 5.0781-0.015626 6.2773 2.0156 1.3047 4.2188 2.0469 6.6133 2.1719 2.1172 0.17188 2.9297-2.0781 3.3203-3.7578 0.3125-1.5938-0.30469-2.8203-1.7461-3.6797-1.625-0.96875-3.3086-1.6016-5.2266-1.5156zm-26.543 95.883c4.375 2.4648 8.4805 2.375 12.637 1.0195 4.7812-1.5586 9.5273-3.2344 14.309-4.7852 1.1992-0.38672 1.7891-1.0352 1.7617-2.3359-0.83594-0.16406-1.4727 0.35547-2.1562 0.61719-3.0352 1.1562-6.0273 2.4648-9.3242 2.668-1.3359 0.082031-2.6953 0.14453-4.0156-0.027344-2.3945-0.3125-4.7578-0.83594-7.0234 0.51953-2.1094 0.73828-3.7969 1.3906-6.1875 2.3242zm41.133-6.8828c-0.74609 0.41797-0.55859 0.88281-0.40234 1.3984 0.46484 1.3711 2.4297 0.85938 3.5312 1.3594 3.7891 1.0625 7.5469 2.2344 11.355 3.2266 2.3867 0.62109 4.8594 1.1484 7.3281 0.54688 1.9688-0.48047 3.875-1.207 5.8008-1.8516 0.23047-0.078125 0.40625-0.32031 0.74609-0.60156-3.1836-0.54297-5.8164-2.1953-8.9258-1.6094-1.0547 0.22266-2.1211 0.46094-3.1953 0.53516-5.5977 0.61719-11.098-1.043-16.238-3.0039zm2.832 21.293c0.52734 0.058594 1.0117-0.035156 1.1953 0.16016 0.42187 0.44141 0.71094 1.0156 1.0312 1.5508 0.48437 1.3789 1.793 2.0273 2.875 2.8867 5.6523 3.9414 12.035 5.5234 19.047 4.7656-7.8047-4.1406-16.242-5.8789-23.535-10.816-0.35156-0.28516-0.84766-0.39063-1.6172-0.72656 0.44922 0.97266 0.73047 1.5898 1.0039 2.1797zm-37.348 10.91c6.1211 0.98828 15.383-3.2852 19.137-8.1719-0.074219-0.35547-0.14453-0.71484-0.20313-1.0039 0.48828-0.67969 1.4453-0.33594 1.8125-1.1836 0.30078-0.69141 1.3281-1.0234 1.1367-1.9922-7.2422 4.2852-14.695 8.0156-21.883 12.352zm3.2227-120.03c-2.7578-0.015625-3.168 0.23438-3.8125 2.6953-0.36719 1.4062-0.69531 2.8594-0.75 4.3047-0.066406 1.75 0.85938 2.6211 2.4688 2.2656 2.4961-0.55078 4.7734-1.4883 5.5078-4.3477 0.32031-1.3438 1.8281-3.1367 0.035156-4.0156-1.1094-0.69141-2.3242-1.0312-3.4492-0.90234zm57.27 127.81c-2.4648-2.9453-14.312-9.1914-18.555-9.8398 0.34766 1.3789 1.8906 1.8281 2.9609 2.5039 1.3555 0.59375 2.3242 1.543 2.9844 2.8555 2.4102 4.5469 8.0039 4.9141 12.609 4.4805zm-41.852-10.359c-7.0508 4.1016-14.516 6.5234-19.516 13.152 5.0859-0.94141 10.199-1.875 12.914-6.625 1.6055-3.0352 4.9453-3.4102 6.6016-6.5273zm15.613-39.004c8.9922 3.3203 12.57 3.0117 21.582-0.40234-2.3203-0.99219-4.3633-1.9531-6.8555-1.0234-3.8711 1.1875-7.7734 1.2852-11.613-0.16016-1.5039-0.69922-2.1758 0.64453-3.1133 1.5859zm-32.57 1.125c8.918 3.5977 12.461 2.1875 21.211-0.60938-0.82422-0.8125-1.4297-1.4141-2.0195-1.9922-4.1602 1.7969-8.2578 2.0703-12.48 0.91016-2.5-0.60156-4.2422 0.70703-6.7109 1.6914zm32.66 19.754c-0.089844 0.90625-0.097657 1.6016 0.80078 1.6016 1.8438 0.007813 3.2617 0.9375 4.6797 1.9297 2.4688 1.7305 5.1719 3.0156 7.9844 4.0781 1.7969 0.72266 10.043 2.8555 11.332 1.5859-8.5156-3.0039-16.414-6.8438-24.797-9.1953zm-12.043 0.57422c-2.9805 0.85938-21.113 9.5312-22.934 10.98 5.5195 0.019531 10.641-2.668 15.43-5.1914 2.4297-1.3984 4.4648-3.4297 7.1797-4.3828 0.52344-0.17969 0.80859-0.79687 0.32422-1.4062zm-19.508 23.234c-1.2461-0.082032-2.4258-0.16406-3.6055-0.23438-1.0273-0.003906-2.2383-0.34766-3.1562 0.22266-2.082 1.6055-3.7188 3.5859-4.9648 5.9727 1.5117 0.78516 3.0039 1.1836 4.6797 1.2695 1.8672-2.8867 4.418-5.168 7.0469-7.2305zm53.758-1.6758c2.4531 1.375 4.7656 2.7188 6.7812 4.4961 1.5078 1.3672 4.7148-1.7344 5.9805-2.7617-1.4141-0.88672-3.0508-3.0586-4.6367-2.8906-2.6289 0.4375-5.2656 0.76172-8.125 1.1562zm-68.004 6.2891c1.4414-1.9766 2.8828-3.957 4.25-5.8359-1.4961-0.98438-3.0742-2.0234-4.6719-3.0781-3.0625 2.7461-2.8984 6.2109 0.42188 8.9141zm67.242-29.555c-7.1367-2.1719-14.047-4.2734-21.059-6.4062v1.6445c6.9102 2.3711 13.504 5.5039 21.059 4.7617zm-34.395-5.8516c-5.2812 1.8711-10.297 4.2656-15.656 5.9297-1.9141 0.60938-3.7188 1.5625-5.5742 2.3555 7.25-0.10156 13.918-3.6875 20.559-6.25 0.88672-0.37891 0.87109-0.41406 0.67188-2.0352zm41.848 53.199c2.5273-1.3555-1.4492-6.2617-2.6172-7.625-0.24609-0.28516-0.75391-0.41797-1.1602-0.47266-1.5547-0.09375-3.0039-0.54297-4.5625-0.20703 2.0547 2.3398 3.9727 4.5391 5.9141 6.7227 0.63281 0.71484 1.3164 1.3906 2.4258 1.582zm-75.309-56.594c0.55078 1.9336 2.0977 2.9258 3.3164 4.1992 2.3672-0.98047 4.6562-1.9297 6.8281-2.832-2.2773-1.1367-4.6992-2.3477-7.2617-3.625-0.82812 0.65234-1.7812 1.3945-2.8828 2.2578zm8.5078 51.293c0.050781 1.75-1.1133 4.5977 0.63672 5.6406 0.92578 0.44922 1.5859-0.25781 2.1367-0.875 1.3555-1.5273 2.6875-3.082 3.9766-4.668 0.48828-0.59766 1.2344-1.0547 1.4258-2.0078-2.7891 0.65234-5.4219 1.2656-8.1758 1.9102zm69.488-49.797c2.2383-1.5117 4.1094-3.2891 4.9141-4.6953-0.86328-0.69141-1.7344-1.3867-2.5938-2.0742-2.543 2.1172-5.1172 3.7227-8.1562 5.1055 2.0625 0.58984 3.9453 1.125 5.8359 1.6641zm5.625 22.281c1.0703-1.2266 1.9219-2.75 2.6172-4.3242-0.88281-1.4453-1.3008-1.8594-2.5234-2.5234-1.8203 1.1758-3.6445 2.3555-5.4609 3.5312 1.832 1.1328 3.5508 2.1953 5.3672 3.3164zm-14.102 18.211c4.0078 3.6172 3.7109 5.4102 9.2852 2.418-1.0547-1.2773-2.0156-2.4375-2.9844-3.6094-2.1289 0.40234-4.1641 0.78906-6.3008 1.1914zm-33.891 86.691c1.3516-2.418 1.9141-5.082-0.69531-5.4375-1.418-0.20703-4.8945 0.046875-5.2188 1.8047-0.097656 0.89844 0.74219 1.1719 1.3086 1.4727 1.457 0.76953 2.9844 1.4102 4.6055 2.1602zm2.4688-150.88c-3.4727 0.92578-6.7852 1.7773-10.074 2.7031-2.25 0.85547-4.4492-0.70703-6.6484 0.1875 3.1758 0.87109 6.5117 0.81641 9.7656 1.2305 2.1367-0.11328 4.0859-1.3164 6.2969-1.1406 0.96094-0.003906 1.9219-0.074219 2.8789-0.11328 0-0.054688-0.003907-0.10938-0.003907-0.16406-1.0586-0.0625-2.1172-0.12891-3.2578-0.19922 0.19141-0.9375 0.5625-1.4336 1.3711-1.5352 0.046875-0.007812 0.070312-0.21094 0.17578-0.54297-0.14844-0.125-0.38281-0.32031-0.50391-0.42578zm12.113 150.76c1.9023-0.66016 3.5117-1.5312 5.1875-2.5703 0.83203-0.54297 0.8125-1.3086-0.007812-1.8164-1.5195-0.94141-3.1641-1.2773-4.918-0.74219-2.4922 0.61328-1.4062 3.6016-0.26172 5.1289zm-50.113-119.93c1.2109 1.7773 3.043 2.2422 4.7383 2.9531 2.4258 1.0469 4.0391-0.69141 6.125-1.8438-3.2852-0.085937-5.9688-1.3438-8.5117-2.7969-0.82031 0.58984-1.5391 1.1055-2.3516 1.6875zm83.531-1.4102c-2.1094 1.2266-4.0508 2.3555-5.8984 3.4297 1.6914 0.87891 3.4766 1.8047 5.3867 2.7969 0.83203-1.2773 1.6836-2.5859 2.5898-3.9766-0.77734-0.84766-1.4531-1.5781-2.0781-2.25zm-12.926 0.089844c1.293 0.86328 3.125 1.8984 4.7969 1.5391 2.0898-0.64062 4.1719-1.3125 5.6055-3.0938-1.0547-0.55469-1.9375-1.0156-2.6055-1.3672-2.7266 1.0195-5.25 1.9648-7.7969 2.9219zm-50.52-80.734c0.86719-1.2383 1.1602-2.5938 1.5078-3.918 0.089843-0.34766 0.054687-0.79688-0.085938-1.1289-0.72656-1.6992-1.375-3.4258-1.6211-5.3438-1.7852 1.5625-1.7773 6.043-1.7383 8.293 0.03125 0.98047 0.67969 1.7539 1.9375 2.0977zm21.57-23.332c-0.10938-0.085937-0.21875-0.16797-0.32422-0.25391-0.86328 0.97266-1.9453 1.8828-1.7148 3.3945 0.25 1.6484 0.71094 3.2461 2.3125 4.1797 0.75391 0.44141 1.2266 1.0547 1.3438 1.9727 0.51562 2.1172 0.18359 5.793 3.2969 5.4492 1.6641-0.046875 3.3203-0.19922 5.0234-0.30859-1.7891-1.7969-3.293 0.62109-4.6484-1.0625-0.86328-1.2656-1.8164-2.4844-2.5312-3.8281-0.63672-1.1992-1.2227-2.3086-2.4336-3.0898-2.2656-1.5078-1.7695-4.1445-0.32422-6.4531zm34.176 81.828c-5.418-2.6289-3.9766-1.8242-8.7539 1.0547 1.2305 0.87891 2.6523 1.2109 4.0469 1.5625 0.36719 0.09375 0.88672-0.12109 1.2461-0.33984 1.082-0.65625 2.1211-1.3867 3.4609-2.2773zm-20.535-4.5859c-0.015625-0.10938-0.027344-0.21875-0.042969-0.33203-2.2031-0.60547-4.4062-1.2266-6.6133-1.8164-0.85938-0.23047-1.7266-0.46875-2.6016-0.55078-0.32031-0.03125-0.68359 0.37891-1.0234 0.58203 0.3125 0.57031 0.53906 0.97656 0.8125 1.4727-0.57031 0.13672-0.98438 0.23437-1.8398 0.4375 2.1602 0.27734 3.7461-0.085938 5.6172 1.0508 1.8555 0.45312 3.8516-0.52344 5.6914-0.84375zm-20.316 14.797c-5.4648 1.75-9.9688 3.2461-15.379 5.1055 5.5312 0.70313 10.277-2.0039 15.379-3.5977v-1.5078zm-36.84 15.367c-1.3164 2.25-1.0898 4.5234 0.67969 6.3203 1.5039-1.1016 3.0117-2.207 4.457-3.2656-1.6914-1.0078-3.4141-2.0312-5.1367-3.0547zm6.8555-22.219c-1.375 0.99609-2.418 1.8672-3.5703 3.0273 0.71094 1.1758 1.2617 1.9023 2.2266 2.7539 1.5742-1.1523 3.0391-2.2266 4.5977-3.3672-1.1602-0.86328-2.168-1.6094-3.2539-2.4141zm73.168-2.2812c-1.2852 0.94531-2.4336 1.793-3.7656 2.7734 1.8633 0.92578 3.4922 1.7305 5.2695 2.6133 0.47656-1.1484 1.6328-1.7812 1.9102-3.0625-1.1484-0.78516-2.2461-1.5312-3.4141-2.3242zm-8.1758 59.965c-2.5703-3.082-5.7734-4.8086-9.5273-6.0312 1.707 3.6562 6.0195 6.3555 9.5273 6.0312zm-56.531 1.5195c0.25 0.074219 0.375 0.15234 0.48438 0.13281 3.4531-0.6875 8.3008-3.1953 9.1953-6.8555-4.4922 1.9492-6.6914 3.4805-9.6797 6.7227zm7.7344-130.57c-0.089844 1.6172 0.47266 2.4297 0.96875 3.7891 0.24609 0.81641 0.64844 1.582 0.1875 2.5469-0.62109 1.2969-0.17188 2.168 1.2461 3 3.457-2.4219 0.34375-6.1484-1.3789-8.6562-0.15625-0.22656-0.49609-0.33594-1.0234-0.67969zm-14.73 132.12c1.5195 0.34766 2.5195-0.078126 3.3789-0.94531 1.2734-1.2852 2.5469-2.5703 3.8672-3.9023h-5.1211c-0.68359 1.5586-1.3672 3.1172-2.125 4.8477zm-4.3594-6.4727c-1.168 3.0898-0.54688 5.5625 1.707 6.6094 0.57031-1.7773 1.1328-3.5391 1.7188-5.3711-1.0469-0.37891-2.1758-0.78906-3.4258-1.2383zm80.961-6.4102c-1.7031 1.1367-3.2383 2.1641-4.7734 3.1875 0.85156 1.0898 1.7305 2.2148 2.6133 3.3438 2.2812-1.707 2.582-3.9375 2.1602-6.5312zm-38.055-39.863c5.3711 1.0156 10.223 3.2461 15.793 3.1445-4.0508-1.1953-7.6953-2.3359-11.613-3.6016-1.3164-0.32031-2.8242-1.0273-4.1406-0.39062-0.011719 0.20312-0.023438 0.44141-0.039063 0.84766zm-34.043-6.9023c1.2188-0.67969 2.5703-1.0586 3.5117-1.8672-1.2773-0.78125-2.5078-1.5352-3.8242-2.3438-1.0898 0.41797-2.3164 0.70313-3.4141 1.6602 1.2617 0.86719 2.4062 1.6523 3.7266 2.5508zm-10.805 36.527c1.1836-0.86328 2.207-1.6055 3.3867-2.4648-1.8594-0.8125-3.3516-2.1055-5.3789-2.8633-0.019532 2.0938 0.62109 3.7227 1.9922 5.3281zm83.414 1.3516c-1.3125 1.0117-2.5156 1.9375-3.7305 2.875 0.99609 0.73438 2 1.4766 3.1055 2.293 1.2305-1.6914 3.2539-3.8008 0.625-5.168zm-27.68-52.547c1.9297 0.49609 3.8203 0.98828 5.7188 1.4531 1.3672-0.042968 2.6055-0.74219 3.7734-1.5195-1.8594-1.1328-6.4727-1.0664-9.4922 0.066406zm-36.363 0.96484c1.5469 0.90234 2.9297 2.0625 4.6406 0.79688 1.4609-0.59375 2.6992-0.8125 4.3867-1.4492-3.1211-0.23438-6.3984-1.2812-9.0273 0.65234zm33.27-1.7266c-0.17188-0.14453-0.21875-0.21875-0.27344-0.22266-1.9062-0.11719-3.8125-0.28906-5.7227-0.3125-0.71875-0.007812-1.5234 0.20312-1.7266 1.0977 0.99219 0.38672 1.8086 1.0625 2.8164 1.1328 1.4961-0.26562 2.9922-0.53906 4.4688-0.89062 0.21094-0.050781 0.30859-0.54688 0.4375-0.80469zm22.84 73.781c0.82812 1.3906 1.6484 2.7773 2.5938 4.3633 0.82031-2.0781 1.293-3.9297 1.0039-6.0195-1.293 0.59375-2.4844 1.1406-3.5977 1.6562zm3.832-63.66c1.2773 0.875 2.3086 1.5859 3.3477 2.3008 1.2266-2.4102 0.72656-3.668-1.957-4.8633-0.4375 0.80859-0.87891 1.625-1.3906 2.5625zm-41.02-9.5195c-0.14062-0.80078-0.62109-0.88281-1.1641-0.83203-2.4805 0.22656-4.4258 0.45703-7.0469 0.79297 1.1562 1.0391 2.1445 0.97656 3.5508 0.96094 2.6172-0.03125 2.8594 0.1875 4.6602-0.92188zm46.105 24.16c-1.375 1.2969-2.6836 2.5312-4.0625 3.832 0.76953 0.46094 1.5039 0.89844 2.3789 1.418 0.80859-1.7773 2.793-2.9219 1.6836-5.25zm-0.027343-3.8594c0.65625-1.8125 0.55859-3.3633-0.99609-4.6953-0.77344 0.97656-1.2656 1.6836-1.9102 2.6953 1.0391 0.71484 1.9609 1.3477 2.9062 2zm0.79688 19.723c0.80859 0.90625 1.4648 1.6406 2.1797 2.4375 0.57812-1.5117 0.36328-3.125-0.27344-4.832-0.74219 0.93359-1.4414 1.8125-1.9062 2.3945zm-81.066-31.469c-0.039063 1.082 0.63281 1.5508 1.2305 1.9883 1.1719-0.61328 2.2695-1.1875 3.5352-1.8477-1.6289-1.0938-3.1094-0.69141-4.7656-0.14063zm45.5-61.031c-0.097657-0.10547-0.19922-0.21094-0.29688-0.31641-1.1406 1.6094-3.0352 1.793-4.7109 2.4961 2.2891 3.1367 3.7695-0.12891 5.0078-2.1797zm29.219 58.699c-2.9688-0.39844-3.4648-0.33984-5.0352 0.55859 1.1914 0.54688 2.3281 1.0703 3.6211 1.6641 0.45312-0.70703 0.87891-1.3789 1.4141-2.2227zm-56.02 5.8828c2.5469 0.89844 4.7617 0.5625 6.9688-0.14062-2.2266-0.77734-4.4453-0.75-6.9688 0.14062zm-20.973-2.0664c-1.4727 1.3633-1.8008 2.7461-1.5586 4.4023 1.0039-0.88672 1.9141-1.6914 2.9727-2.625-0.49609-0.625-0.89844-1.1289-1.4141-1.7773zm57.953-0.34766c2.9688 0.98438 4.7148 0.64844 7.457-1.4336-2.5977 0.5-4.8867 0.9375-7.457 1.4336zm-2.5078 2.1016c-2.168-1.9531-4.457-0.74219-6.8398-0.24609 2.1992 0.39062 4.375 0.45312 6.8398 0.24609zm-58.977 20.566c0.92969-0.61719 1.6367-1.082 2.0977-1.3867-0.76562-0.78906-1.4609-1.5117-2.0977-2.168v3.5547zm15.98-22.773c1.9023 1.2891 3.832 2.4297 6.1992 1.2461-2.0625-0.41406-4.1328-0.82812-6.1992-1.2461zm71.859 18.547c-0.5 0.84375-1.0039 1.6914-1.5273 2.5742 0.52344 0.44922 0.98438 0.84375 1.5938 1.3711 0.44141-1.457 0.36719-2.6875-0.066406-3.9453zm-86.504-8.332c-0.80078 1.0547-0.58203 2.0469-0.52734 3.2539 0.73438-0.67187 1.3008-1.1953 1.9062-1.75-0.48047-0.52344-0.85938-0.9375-1.3789-1.5039z" />
    <path
        d="m217.32 373.57c0.90234 1 2.4062 0.51172 3.1211 1.6914-0.75781 1.0039-1.8203 0.87891-2.7969 0.76563-1.293-0.14844-2.1992-0.94141-2.8555-2.1875-2.8906 0.94531-6.6211 1.4062-8.9883-0.92969-0.80859-0.74219-1.0234-1.6211-0.57813-2.6016 0.36719-0.8125 0.73438-1.6562 1.2695-2.3555 1.9805-2.582 2.7383-5.582 3.1094-8.7188 0.62891-5.3281 0.97656-10.68 1.2852-16.039 0.58984-15.551 0.41406-31.133-0.92969-46.633-0.44922-4.6953-0.94922-9.3906-1.5781-14.066-0.625-4.6094-1.7227-9.125-3.0586-13.586-0.28516-0.95703-0.33594-2.0117-0.32031-3.0234 0.21094-3.9609 5.5586-3.582 8.3789-2.9609 1.6367 0.3125 0.8125 2.5586 2.6602 2.6523 2.4219 0.47266 2.1836-0.38672 3.9141-1.4375 3.3984-1.2617 3.8672 4.4219 4.8828 6.5508 0.90625 2.5039-1.7188 4.2188-3.0742 5.9727-3.5039 3.8281-0.71094 5.4727-2.0859 7.5781-1.3555 1.5703-1.4531 3.5195-1.5781 5.4062-0.82422 14.641-1.1836 29.324-0.35937 43.969 0.44922 8.8555 1.5977 17.648 2.9961 26.398 0.31641 2.0703 1.0508 3.9414 2.6328 5.3984 2.4805 2.0938 0.65625 5.0156-0.42969 7.3398-0.96875 1.9688-3.75 0.64844-5.6172 0.81641z" />
    <path
        d="m302.54 267.91c1.5781-0.43359 3.3867-0.13672 3.8906-1.9336 0.13672-0.72656 0.76953-1.082 1.4297-1.0508 1.5898 0.070313 3.2031 0.12109 4.7539 0.44531 2.8359 0.67578 2.2852 4.5273 1.5234 6.6328-3.7344 10.336-5.0664 21.297-6.6758 32.109-1.582 14.152-3.0938 28.34-3.2383 42.598 0.003906 5.5586-0.60938 11.145 0.14844 16.676 0.23047 1.7734 0.79297 3.4727 1.6602 5.0664 0.78516 1.7773 2.8789 4.5703 0.44922 5.8828-2.1719 1.1719-4.9062 1.4531-7.2031 0.39453-2.6133-1.2109-3.0312 3.3164-7.1641 0.45703 0.97656-1.0781 2.6562-0.58594 3.9062-1.8281-1.4375 0.23828-2.5547 0.40234-3.6641 0.60547-1.5586 0.28906-2.2773 0.007812-2.8828-1.4961-0.51953-1.293-0.84766-2.6641-1.1836-4.0195-0.070312-1.2227 1.043-2.3672 1.7773-3.2422 1.6016-1.5117 2.5508-3.3789 3.0469-5.4531 1.0938-4.5781 2.1797-9.1641 3.0625-13.785 2.0391-12.004 3.3164-24.133 4.2617-36.266 0.44531-6.8477 0.54297-13.703 0.46484-20.562-0.011719-1.0039-0.25391-1.8906-0.85156-2.6875-0.60938-0.80859-0.78906-1.6055-0.48047-2.6758 0.45312-1.5859 0.18359-3.1758-0.89062-4.5352-1.375-2.2852-4.6953-4.1992-3.2461-7.1953 1.6328-3.3828 3.082-10.246 7.1055-4.1367z" />
    <path
        d="m204.1 481.46c-1.2383-0.85156-2.3828-1.5898-3.8281-0.47266-0.23047 0.17187-0.60938 0.15625-0.92578 0.20312-3.0625 0.25-1.9062-3.1133-0.96094-4.7617 2.0625-4.4219 1.8281-9.4648 2.7031-14.191 0.89844-8.3672 1.4141-16.773 2.3125-25.145 0.26562-6.6406 0.71875-13.27 1.168-19.898 0.35938-11.047 1.0625-22.172-0.26172-33.168-0.09375-1.1328-0.60938-2.0625-1.1289-3.0195-2.2539-3.957 3.7812-3.6797 5.1445-1.1133 4.6641-1.043 3.9492-5.957 9.3906-1.4727 2.2461-0.87891 5.0117-1.7266 5.957 1.2578 0.58984 1.582 0.67578 3.0781-0.68359 4.3984-6.6602 6.4688-8 16.012-9.2031 24.789-1.9023 16.547-3.2031 33.199-3.5039 49.855-0.27734 4.0859-0.21484 8.1641 0.10156 12.25 0.10156 1.75 0.97656 3.1875 2.1406 4.3906 1.6406 1.6953 1.5625 3.5234 0.70703 5.4805-0.92578 2.1172-2.5352 2.3125-4.4258 1.4297-1.4648-1.3438-2.918-2.0938-4.7031-0.8125zm-0.54297-4.6016c3.082-2.4688 2.1016-7.668 2.6641-11.246 0.21484-2.8008 0.46875-5.5977 0.66016-8.3984 0.69922-10.969 1.375-21.941 2.0234-32.914 0.50391-7.6445 1.4219-15.25 1.9336-22.895 0.52734-4.3789 0.66016-8.793 0.62109-13.199-0.22266-2.0078-0.98047-4.0664-2.4844-5.5508-1.1172 13.652-1.9336 27.059-2.4062 40.707-0.89453 17.855-2.3125 35.648-3.0117 53.496z" />
    <path
        d="m303.86 380.4c0.60938-1.7305 4.2617-2.7031 5.2656-1.3125 1.3789 1.2891-0.60547 2.5898-1.043 3.8281-1.875 5.2383-1.4648 10.965-2.1641 16.43-0.84766 16.332-2.25 32.633-2.8242 48.98-0.35938 8.3086-0.89453 16.598-0.29297 24.91 0.20312 2.0039 1.0938 3.9297 1.6523 5.8633 0.76172 2.4844-1.9336 2.8047-3.5117 1.5703-0.50391-0.31641-0.97656-0.37109-1.3945 0.050781-1.9492 1.9805-2.9609-0.90625-4.7031 0.4375-1.7227 1.2578-4.8398 2.6797-5.7578-0.16797-0.66406-1.8867-0.92578-3.7461 0.79297-5.3008 1.2383-1.5 2.4766-2.9102 2.6172-4.9805 0.96875-7.3945 2.0156-14.777 2.2656-22.246 0.73828-13.531 1.8359-27.09 1.4062-40.641-0.26172-8.0352-1.0039-16.953-6.5898-23.246-1.7227-1.9023-1.5742-3.8828 0.050781-6.0391 0.57031-0.75781 1.2891-0.99609 2.1797-0.80469 1.5469 0.59375 2.9766 0.90234 4.4688-0.21094 1.4766-1.0391 3.0234-0.65234 4.1602 0.86328 0.82812 1.1055 1.875 1.6875 3.4219 2.0156zm-5.6523 96.297c0.13281-0.3125 0.25781-0.47266 0.25781-0.63281 0.10547-7.3555 1.168-14.652 1.3203-22.008 0.84766-8.9023 1.0117-17.844 1.8125-26.75 0.27344-7.4727 0.77734-14.938 1.1562-22.398 0.24609-7.4141-0.23047-14.617 0.32812-22.055-3.5742 3.3008-3.3633 7.9609-3.7148 12.336-0.23047 10.762 0.26953 21.535-0.40234 32.293-0.48438 9.6367-1.0391 19.273-1.5234 28.91-0.17969 4.668-0.33984 9.3398-0.48438 14.008 0.19922 2.1289-0.82422 4.8359 1.25 6.2969z" />
    <path
        d="m213.57 195.85c-0.26953 2.0742-1.0742 4.8164-3.7539 4.1289-1.5586-0.19141-2.9336-2.2695-4.5-1.2148-4.2617 2.9766-5.8398 1.6992-6.4414-3.1875-0.23828-1.3867 0.12109-2.6602 0.93359-3.8086 1.3594-1.9336 1.9727-4.1289 2.1484-6.4531 0.42578-5.668 0.65625-11.359 0.66016-17.043-0.15625-10.285-0.5625-20.582-1.5234-30.82-0.39844-3.7969-0.89844-7.5859-1.4883-11.359-0.64062-3.3594-1.9297-6.5977-2.8984-9.8828-1.418-3.4062 2.9258-3.6289 5.0703-4.7227 2.1641-0.92969 2.4453 2.9609 6.6719 0.73438 0.79297-0.50391 1.8555-1.0547 2.5898-0.15625 1.9297 2.1172 3.0938 5.5859 1.0312 8-4.8711 6.75-4.8008 15.562-5.2266 23.551-0.72656 12.496 0.63672 25.004 2.3125 37.383 0.65234 3.7891 0.56641 7.9297 3.0156 11.109 0.79688 1.1016 1.4375 2.2695 1.3984 3.7422z" />
    <path
        d="m321.03 198.42c-0.80859-0.33203-1.6641-0.58203-2.418-1.0078-1.6797-0.94922-1.6562-0.97656-3.1602 0.13281-1.5312 1.3203-4.5273 1.6523-5.3711-0.58203-1.2305-2.293-0.58203-4.7734 0.84375-6.832 1.4531-2.457 1.5977-5.3633 1.832-8.1328 1.1055-16.641 1.4648-33.391-0.73828-49.957-0.48047-3.4727-1.2227-6.8906-2.6836-10.117-0.94922-2.7539-4.8047-4.6094-3.4922-7.8242 0.87109-1.6406 1.4727-5.543 4.0273-3.9805 0.39844 0.19922 0.77344 0.5 1.1953 0.59766 3.1055 0.9375 3.0312-2.3203 5.8203-1.1641 7.7695 2.0195 4.9102 2.1953 3.0547 10.852-1.5547 5.8359-0.92578 11.949-1.4922 17.906-0.61328 12.582-0.21484 25.207 0.91406 37.746 0.70703 4.293 0.44531 9.6758 3.2188 13.207 1.8008 2.1094 1.4727 4.5508 1.25 6.9492-0.13672 1.4883-1.0742 2.0547-2.8008 2.207z" />
    <path
        d="m315.63 203.2c1.2031-1.2266 2.4688-2.3125 4.3867-1.832 0.72656 0.62891 1.4844 1.2812 2.3203 2.0078 1.3086-0.94531 2.2773-2.0039 3.7422-2.4688 1.3047-0.27734 2.4766 1.125 1.8398 2.2773-1.207 2.1758-1.3594 4.4961-1.2812 6.8789 0.14062 6.6484 0.37891 13.281 1.4648 19.855 1.0547 9.625 2.8789 19.133 4.8398 28.605 0.61328 3.0156 1.7383 5.8633 2.9727 8.6641 0.55078 1.25 0.92578 2.5117 0.60938 3.9414-1.832 0.77734-3.293-0.24219-4.7188-1.0352-2.5664 1.2969-3.3945 3.0039-6.2578 1.3438-2.2344 0.70703-2.5898 1.1523-4.6367-0.3125-2.8242-2.0547 2.3672-4.5156 1.9805-8.5859-0.007812-3.3203 0.09375-6.6484-0.16016-9.9531-0.67188-7.9258-1.8828-15.816-3.3867-23.629-1.0078-5.1367-2.3633-10.176-4.6641-14.918-0.875-1.8086-2.2109-3.2773-3.4492-4.8242-1.7969-1.7422-1.6211-7.1797 1.4414-6.7969 0.92969 0.17578 1.832 0.48047 2.957 0.78125zm7.1172 3.8242c-4.0938 2.2969-1.793 10.402-1.3125 14.23 0.69922 3.8789 1.4258 7.7539 2.0742 11.641 1.4258 8.0352 1.707 16.207 2.6992 24.301 0.55078 2.9609 0.17187 7.3477 2.6992 9.4102-0.32031-0.26172 1.1016 0.16406 1.7734-0.097657-0.36719 0.14453 0.47656-0.42969 0.46875-0.54687-0.089844-1.3984-0.11719-2.8125-0.35156-4.1914-0.71094-4.1992-1.4336-8.4023-2.2852-12.574-2.0312-9.457-3.2461-19.062-4.4805-28.648-0.57422-4.5234-0.37891-9.0234-1.2852-13.523z" />
    <path
        d="m196.98 202.4c1.25 0.95703 2.4492 1.875 3.7227 2.8477 1.4648-1.3867 3.082-2.9453 4.9922-1.4141 1.0039 1.3594 2.1953 1.4805 3.6875 0.88672 1.6367-0.60938 2.5586-0.14062 3.1836 1.3984 0.85938 2.1133 0.61328 4.1562-1.0781 5.6328-8.2578 7.6094-12.934 28.762-16.027 39.863-0.93359 3.8984-1.6602 7.8477-2.3477 11.797-0.39063 2.25-0.078126 4.4219 1.293 6.4102 1.3555 1.9609 1.1133 2.5938-0.98828 3.6836-1.0078 0.51953-1.9922 0.84766-3.0664 0.13281-0.88672-0.58984-1.7969-0.44141-2.7344-0.007813-1.957 1.0273-1.9727 0.058594-3.1016-1.4023-5.1836 1.9727-5.0781 0.26172-3.2539-4.1289 5.0508-9.9219 7.2305-20.93 10.328-31.543 1.4297-5.3477 2.5938-10.758 3.4531-16.234 0.57422-4.7344 1.8125-9.6992 0.68359-14.414-0.69531-1.8633-0.66797-2.0625 1.2539-3.5078zm3.1055 6.5586c-0.89453 1.7148-0.83203 3.6016-1.2539 5.4453-0.80469 4.6406-1.3516 9.3398-2.4688 13.902-1.8867 7.7227-4.082 15.371-6.2422 23.023-1.2812 4.5273-2.9805 8.9375-3.8711 13.578-0.1875 0.97656 0.54297 2.9023 0.085938 1.9688 0.40234 0.82031 0.6875 1.4609 1.3516 1.6211 0.86719-1.0469 1.2422-1.9766 1.5664-2.9492 1.5508-4.5938 2.3672-9.3672 3.418-14.078 1.0391-4.6523 2.0234-9.3164 3.3945-13.891 1.5898-5.3008 3.0977-10.629 4.5469-15.969 0.75-3.4062 3.0508-10.328-0.52734-12.652z" />
    <path
        d="m324.22 305.05c-0.77734-1.8203-0.70312-2.0508 1.1484-3.4688-1.5312-1.2734-1.3398-3.5547 0.39844-4.5742-2.7734-4.0312 0.48438-2.832 0.81641-6.4414 0.48437-2.3672 0.83984-4.7617 1.1797-7.1523 0.066406-0.46484-0.11719-0.99609-0.28516-1.4648-0.72266-2.0195-0.50781-2.7812 1.2031-4.0938 0.12109-0.09375 0.16797-0.28516 0.39062-0.6875-0.56641 0.15625-0.89062 0.29688-1.2266 0.32812-0.76172 0.070312-2.6484-1.6367-2.707-2.4102-0.050781-0.63281 0.78906-1.5586 1.7734-1.7812 1.1797-0.26562 2.3281-0.57422 3.4062-1.1289 0.15234-0.078126 0.37891-0.011719 0.67188-0.011719 0.24609 0.34766 0.52734 0.74219 0.79297 1.1172 2.1836-0.59766 2.6602-0.82422 3.1367 1.5117 0.41406-0.13672 0.82031-0.26953 1.3594-0.44922 0.39062 0.57422 0.76562 1.1289 1.1875 1.7539-0.45312 0.39063-0.81641 0.70313-1.1719 1.0078 1.5117 1.8672 1.6328 2.4062 1.5273 4.7266 0.23438 2.0234 0.55469 4.0391 0.80469 6.0625 0.24609 1.9609 0.44141 3.9258 0.67578 5.8828 0.22266 1.6562 0.95312 2.7656-0.26563 4.3633 1.3633 1.3984 0.21094 2.1172 0.33594 3.543 0.25 0.79688 0.70312 1.5625-0.29297 2.1719 0.46875 0.53516-0.16016 1.1055 0.023438 1.6094 0.4375 1.1914-0.29297 1.5977-1.3008 1.9805 0.79297 1.1016 1.0195 2.1641-0.29297 3.0625-0.33203 0.55078-0.074219 1.4062-0.085938 2.0859-0.50391 0.33203-0.97266 0.64062-1.5312 1.0039 0.054688 0.375 0.11328 0.78906 0.18359 1.3047-1.2539 0.43359-1.5195 2.1523-3.0273 2.3789-0.25781 0.49219-0.63672 1.293-1.1289 1.6367-1.5703 1.168-3.207 2.1836-5.1211 2.7305-0.10938-0.28516-0.22266-0.56641-0.42188-1.0781-0.089844 0.61719-0.14844 1.0156-0.21875 1.4766-0.43359 0.066407-0.85938 0.12891-1.1914 0.17969-0.77344 0.62891-0.37109 2.0039-1.75 2.25 0.56641-1.668 0.61328-3.3594 2.0508-4.4258 3.2148-2.5039 5.3477-5.7383 7.4336-9.2305-0.54297-0.61719-0.71875-1.2773-0.31641-2.168 1.2109-2.2695 0.66797-5.0469 1.6289-7.3477 1.1523-1.7109-1.4922-2.6367 1.1133-3.7656-0.40234-0.30859-0.77344-0.59766-1.0273-0.79688 0.61328-4.918 0.38672-9.6484-0.51172-14.301-0.28125-0.11328-0.28125-0.11719-0.36328 0.070313-0.38281 3.5039-0.45703 7.0234-0.48047 10.547-0.30469 2.6797 2.3047 4.0977-0.70703 6.1875 0.38672 0.57031 0.74609 1.0977 1.1406 1.6797-0.32031 0.64062-0.71875 1.25-1.0586 1.8203-0.007813 0.60156 0.0625 1.2031 0.070312 1.8047 0.007813 0.53516-0.88281 0.57422-0.65625 1.3594 0.20312 0.69141 0.042969 0.73828-0.88672 1.4141 1.1875 3.4336-1.9414 2.5859-0.65234 5.1367-0.69531 0.57031-0.96484 1.6328-2.0859 1.7539-0.10938 0.011719-0.26562 0.12109-0.30078 0.22266-0.20312 0.57422-0.31641 1.1914-0.58594 1.7344-0.21875 0.44922-1.2578-0.03125-1.1719 0.9375-0.33203 0.58594-1.2109 1.0977-1.5469 1.7344-0.33984 0.57812-0.75 0.62109-1.4141 0.38672-0.13281 0.82812-0.10938 1.8477-1.3555 1.7969-0.32812 0.58594-0.65625 1.1758-1.0117 1.8164-2.3438-0.15625 1.125-3.7969 1.7852-4.4531 0.36719 0.089844 0.71094 0.17188 1.1953 0.28906-0.26562-0.39453-0.43359-0.64453-0.60547-0.89453 0.26562-0.53906 0.55469-1.0273 1.3125-0.70312 0.10156-1.3203 0.83203-2.2539 1.6406-3.1445 0.42969-0.47266 0.73828-0.96484 0.96094-1.6016 0.28516-0.8125 1.0547-1.457 1.3438-2.2695 0.26562-0.75 0.042969-1.6641 0.27344-2.4375 0.49609-1.6367 0.51953-3.0234 1.3242-4.668-0.14062-0.74219-1.1211-1.4258-0.75391-2.4922 0.27734-0.79688 0.91797-1.1875 1.4336-1.375-1.0977-1.0312-1.5781-3.0078-0.48828-4.2344 0.63281-0.56641 0.87109-1.2695 0.88281-2.0391-0.082031-3.5859 0.32422-7.1797-0.10547-10.73-0.25 0.33984-0.51172 0.54297-0.56641 0.78906-0.66797 3.1719-1.3281 6.3477-1.9297 9.5312-0.085937 0.45313 0.0625 1.0117 0.26172 1.4492 1.0312 1.6719-0.23047 2.2773-1.4727 3.2148 2.0117 1.5547 1.0195 3.3828-0.32422 5.0898 0.85547 1.8555 0.83984 1.9102-0.86719 3.3477 0.58594 1.7852-1.0508 2.9414-1.1992 4.6172-0.10938 0.92969-0.5625 1.7109-1.7695 1.7266 0.054687 0.35938 0.24219 0.74219 0.12109 0.91797-0.59375 0.87109-1.6016 1.3945-2.0742 2.3867-0.89453 0.039063-1.0781 0.88281-1.5938 1.3242-0.62891 0.53516-0.84766 1.3164-1.4883 1.8047-0.52734 0.40234-0.92187 0.98047-1.6367 1.7734-0.046875-0.71094-0.20312-1.1211-0.0625-1.3398 1.3008-1.7539 2.1523-3.9883 4.0898-5.1367-0.14453-1.3203 0.16797-1.5977 1.2695-2.2617-0.37109-1.6445-0.36719-1.8203 1.2852-2.9219 0.20703-1.207-0.007813-2.6016 1.457-3.3516zm9.9062 7.6133c2.7461-1.1875 0.96875-2.6094 1.9961-4.457 0.1875-0.46094 0.53906-1.0078 0.42969-1.4102-0.37891-1.3789 0.89062-2.6328 0.20312-3.9922 0.33594-0.60156 0.67188-1.1992 0.99609-1.7773-0.89453-1.2461-0.69141-1.6055-0.003906-2.8828-0.44922-0.31641-0.88672-0.625-1.625-1.1406 0.63281 1.5977 0.88281 2.8711-0.30859 3.9141 1.2617 1.5156-0.60547 3.082 0.003906 4.7344 0.007813 0.52734-0.6875 0.66797-1.0586 1.0078 1.5039 4.0664-1.7891 2.7539-0.63281 6.0039zm3.6445-17.289c-0.67969-1.4844-0.71094-1.4844-0.68359-3.2812 0.054687-3.5703-0.22266-7.1055-1.0078-10.844-0.52734 1.4102-0.089843 2.3242 0.13281 3.5703 0.32422 3.793 0.27344 7.6523 0.57812 11.422 0.33594-0.29688 0.65625-0.58203 0.98047-0.86719z" />
    <path
        d="m191.92 321.39c-1.2734-0.20312-2.1875-0.86328-2.6875-2.0703-0.089844-0.21875-0.20312-0.51562-0.38672-0.59375-1.1914-0.52344-1.5977-1.7539-2.3906-2.625-0.63672-0.875-0.79297-2.1328-1.1289-3.168-0.10547-0.36328-0.37109-0.73438-0.33594-1.0742 0.5-3.0586-2.3086-2.1211-0.38672-5.0391-1.582-1.7305-1.6523-3.4961 0.003906-5.2773-1.1992-0.29297-1.3711-1.3203-1.8242-2.2969 1.4609-1.293 1.0781-3.0664 1.0039-4.7617-0.16797-3.4883-0.48828-6.5742-0.38281-10.148-2.3633 3.3281-1.9453 9.8477-2.5273 14.324 0.80469 0.56641 1.2188 1.4492 1.332 2.6016 0.14062 1.418-1.293 1.4141-1.8047 2.2266 2.2266 0.98047 2.4062 1.7656 0.67188 3.293 0.69922 0.81641 1.2383 1.7344 0.60156 2.8516 0.99219 1.1367 1.207 2.6289 0.64062 4.5898 0.14844 0.16797 0.32813 0.34766 0.47656 0.54688 0.36328 0.47656 1.1953 0.76562 0.88672 1.5312-0.36719 0.92188 0.99219 0.48047 0.82812 1.1914-0.082031 0.35156-0.078125 0.72656-0.12109 1.207 1.2461-0.16406 1.3477 1.0938 1.9805 1.7422 0.38281 0.39062 0.35156 1.3945 0.72656 1.5391 0.70312 0.26563 1.0039 0.64453 1.1367 1.293 1.2539 0.4375 0.89453 2.1172 2.6133 2.5391-0.85938 0.41797-1.2148 0.59375-1.5742 0.76562-0.35547 0.19922-0.41797 0.078125-0.91016-0.054688-1.0234 0.14453-2.1797 0.54688-2.7891-0.76953-0.18359 0.22266-0.33984 0.41406-0.55469 0.67578-1.3008-0.37109-1.4883-1.6172-2.8867-1.6133-0.52344-0.011719-1.1133-0.53516-1.5352-0.96484-1.5156-1.5469-2.9727-3.1523-4.4453-4.7383-0.16406-0.17969-0.42969-0.42188-0.40625-0.59766 0.16797-1.1055-0.83984-1.3086-1.5-1.9609 0.03125-0.78125 0.097656-1.9414-0.48828-2.5898-0.78906-0.80469-0.98828-1.6211-0.25391-2.5391-0.8125-0.97656-1.5039-1.5859-0.82422-2.9023-1.1016-1.7266 0.38672-3.457-0.015626-5.1953-0.22266-0.95703 0.14453-1.75 1.207-2.1953-0.99609-0.76562-1.0195-1.6719-0.75-2.6172 1.2578-4.3984 2.5391-8.7852 3.7812-13.188 0.36328-2.1875 0.90625-7.8477 4.1602-4.3984v-1.1875c-1.4688-0.49219-1.4688-0.49219-2.3906-1.4297 0.43359-1.8906 0.43359-1.8906 2.5039-1.8945 0.10156-0.066406 0.26953-0.10937 0.30859-0.20312 0.59375-1.4336 1.5938-1.7461 3.0664-1.3516 2.3477 0.61328 5.8594-0.34375 6.1367 3.1133-1.4492 1.2656-3.6211 1.0078-5.1875 2.2812-1.0547-0.51172-2.1133-1.0547-3.2031-1.5234-0.19141-0.082031-0.51172 0.13672-0.85547 0.24609 1.3945 1.5078 2.9375 1.9961 4.6406 1.5664 2.7656 3.1406-0.39453 4.0742-0.39844 6.9258 0.046875 2.2422 0.011718 4.4883 0.074218 6.7344 0.023438 0.88672 0.17188 1.7773 0.33984 2.6484 0.98047 2.2227 2.9141 2.4883-0.015625 4.5391 1.6367 0.96094 1.6562 3.4883 0.26172 4.7305 0.94141 1.0898 1.9961 2.125 0.57422 3.5547 0.84375 1 1.5664 2.0586 0.74609 3.3945 1.3906 0.89063 2.3047 1.9297 1.7266 3.6797 0.71094 0.60938 1.8789 0.96094 1.4336 2.3125 0.39062 0.67578 1.0977 1.1719 1.6953 1.8711-0.1875 0.14844-0.41406 0.32812-0.64062 0.50781zm-7.8945-2.1367c-2.957-0.52734-1.3359-1.6133-2.293-2.1094-1.8047-0.52734-0.32812-2.5039-1.5195-3.5391-0.57031-0.63672-0.75781-1.4531-0.53906-2.3359 0.0625-0.25391 0.03125-0.58203-0.082031-0.81641-0.41406-0.85547-1.0859-1.7305-0.67578-2.6758 0.48438-1.1172-0.98438-1.7852-0.45703-2.832 0.10547-0.21094 0.003906-0.54688 0.13281-0.73047 0.51953-0.69531 0.0625-1.6719-0.55469-2.0039-0.42187 0.35938-0.78516 0.67188-1.1406 0.97266 0.78125 1.0312 0.79297 1.0312 0.78125 2.0977-0.011719 0.96094-0.015626 1.9219-0.085938 2.875-0.070312 0.92188 0.78906 1.8086 0.089844 2.7578-0.042969 0.058594 0.03125 0.25 0.10156 0.34375 1.0703 1.4453 0.65234 3.0234 0.47656 4.4023 0.59766 0.67578 1.5117 1.2539 1.5586 1.8945 0.046876 0.63672 0.31641 0.75781 0.64453 1.0508 0.32812 0.29688 0.60547 0.64844 0.89844 0.96484-0.097656 0.14062-0.15625 0.23828-0.22656 0.32031-0.089844 0.070312-0.19531 0.097656-0.19141 0.23828 1.4219 0.24609 2.2266 1.4102 3.0898 2.3281 0.96484 1.0273 2.0586 1.832 3.1797 2.6289 0.19922 0.14062 0.53125 0.089844 1.1055 0.17188-0.66406-0.89453-1.0039-1.8281-1.6328-2.1094-1.4805-0.66016-2.0195-2.125-3.1445-3.0195 0.19141-0.33594 0.33594-0.60547 0.48438-0.875zm-9.9062-14.457c0.70703 1.0547 1.0312 2.1758 0.69531 3.4297-0.042968 0.15625 0 0.34375 0.023438 0.51172 0.51172 2.7695 0.21094 5.5625 1.9023 8.0273 0.20703-0.64062 0.16016-0.875-0.035157-1.4219-0.27734-0.96875-0.82422-1.9531-0.76953-2.9023 0.10547-1.8867-0.55078-3.7188-0.25781-5.5977-1.0352-1.8594 0.90625-3.6875-0.003907-5.4961-0.042969-0.14844-0.40234-0.20312-0.61328-0.30078 1.0352 1.6602-0.30469 2.6094-0.94141 3.75zm5.9102-16.203c-0.10938-0.03125-0.21484-0.058594-0.32422-0.089844-0.3125 1.5469-0.54297 3.1172-0.95312 4.6367-0.59375 2.1992-0.16797 4.5508-1.0898 6.6992-0.11328 0.26562 0.27734 0.75 0.52734 1.3672 0.63281-1.4414 0.91016-2.6484 0.98438-3.9297 0.20312-2.8984 0.56641-5.7891 0.85547-8.6836zm-2.3516-0.046875-0.26953-0.046875c-0.80859 3.0664-1.4062 6.1797-2.0117 9.2891-0.082032 0.43359-0.23047 0.98438 0.49609 1.457 0.61719-3.6875 1.1992-7.1953 1.7852-10.699z" />
    <path
        d="m199.64 495.84c-1.0195-0.18359-1.6836 0.83594-2.4297-0.21484-0.074219-0.097656-0.32812-0.066406-0.79297-0.14062 0.42578 0.57422 0.70313 0.94531 0.94531 1.2734-0.11328 0.22656-0.14062 0.38281-0.22656 0.4375-1.6992 1.1484-2.9531 2.8008-5.1094 3.2461-1.5195 0.36719-2.9883 0.98047-4.4531 1.5508-0.79687 0.30859-1.5 0.57422-2.3516 0.070312-0.38672-0.22656-1.0156-0.21094-1.4844-0.09375-1.6992 0.41797-3.3633-0.17578-5.043-0.089844-0.058594 0.003906-0.12891-0.17188-0.30469-0.41797 2.8711-0.78516 6.0664-0.51953 8.2383-2.4727 0.41797-0.32031 1.0039-0.42578 1.6797-0.69531 0.003906-2.3633 2.7773-2.0938 2.1992-3.0898-0.035156-0.078125 0.28906-0.44531 0.49609-0.5 1.2734-0.26562 1.8789-1.5547 2.8906-2.1328 1.0703-0.21875 1.4375-0.75 1.25-1.8633 0.082031-0.78906 1.2773-1.4219 2.0898-1.6094-0.39062-0.30469-0.72656-0.56641-1.1406-0.89062 1.0234-1.4766 1.8711-2.9492 3.2891-3.9961 0.95703-1.0469 1.6836-2.5703 3.4727-2.0547 1.75 0.66016 7.8906 0.14062 7.5508 2.8516-0.27344 1.0586-1.5195 0.62891-2.3438 0.8125-0.72656 0.98438 0.097656 2.2344-1.293 2.793-0.72266 0.625-0.97266 1.9961-1.5039 2.8359-0.69922 1.293-1.4883 2.5508-0.90234 4.2891-1.1484-0.41797-1.3047-0.46875-2.0508 0.36328 0.30859 0.36328 0.53516 0.62891 0.93359 1.0938-1.0117 0.26172-1.8398 0.47266-2.6758 0.6875-0.33984 1.4492-0.32812 1.4727-1.7852 2.0859-0.38281 0.16016-0.66797 0.26172-0.76172 0.71484-0.039062 0.17969-0.30859 0.375-0.51172 0.44922-1.6641 0.50391-3.3281 1.4062-5.0312 1.6367-0.96484-0.39062-1.8438-0.14844-2.7461 0.23047-0.19141 0.082031-0.52734-0.17969-0.95312-0.34766 0.33984-0.27734 0.52734-0.5625 0.70703-0.55859 1.1992 0.023438 2.2617-0.57031 3.457-0.67188 0.99609-0.085937 2.0703-0.66797 2.8672-1.3242 0.78516-0.65234 2.043-0.78906 2.3672-2.0352 0.058594-0.22656 0.63281-0.30859 0.95312-0.48047 0.90234-0.48828 0.94531-0.68359 0.44531-1.8086 0.78125 0.03125 1.3203-0.33594 1.7383-0.98047 1.6406-1.918 2.6016-4.2656 2.9062-6.7734 0.003906-0.039062-0.082031-0.09375-0.1875-0.20703-0.57422 0.87891-1.1367 1.7422-1.75 2.6797-0.35547-0.46484-0.61328-0.80859-0.90625-1.1875 0.21875 1.4648-0.13672 2.1367-1.0547 3.1641 0.3125 0.34375 0.53125 0.58984 1 1.1016-0.78516-0.10937-1.1953-0.16406-1.6094-0.22266-0.30859 0.46484-0.61719 0.92969-0.90625 1.3633 0.30859 0.43359 0.57031 0.78125 0.83203 1.1289zm0.76172-5.8594c-0.089844-0.10938-0.18359-0.21484-0.27344-0.32422-2.0703 1.0625-3.6289 3-5.4805 4.4219-1.2148 1.2031 0.23438 2.5977 1.1133 1.1367 0.32422-0.46094 0.58594-1.125 1.0391-1.3164 1.8555-0.77734 2.3867-2.6328 3.6016-3.918zm-11.969 10.387c0.28906 0.15234 0.44922 0.29297 0.50781 0.25781 1.2188-0.75 2.3711-1.6367 3.6602-2.2422 0.92578-0.4375 1.3672-1.0469 1.6094-1.9297-0.44922-0.35547-0.85547-0.45703-1.1641 0.046875-0.72656 1.1914-1.9102 1.9375-3.0664 2.4297-0.78125 0.33203-1.1562 0.72266-1.5469 1.4375z" />
    <path
        d="m294.72 487.77c0.63281-2.5195-0.45312-1.8281-2.4297-2.043-0.41016-0.53906-0.36328-1.0664 0.011719-1.5781 1.1211-1.6133 3.4492-1.0039 5.1484-1.4219 0.37891-0.042968 0.78125-0.058594 1.1211-0.20703 1.7461-0.81641 3.1875 0.14453 4.1445 1.5742-0.23438 1.0352-1.25 1.0352-1.8828 1.5078 0.83203 0.86328 0.95703 0.82422 2.5547-0.76953 1 1.125 1.9961 2.25 2.9961 3.375-0.41797 0.52734-0.44531 0.58203-0.92578 0.95703 1.0742 0.89844 3.0352 1.2383 1.8359 3.4062 1.9258 0.054688 2.832 1.6953 4.3281 2.3516 0.17188 0.074219 0.20312 0.4375 0.33984 0.63281 0.16016 0.22656 0.34766 0.44141 0.5625 0.61328 0.28516 0.22656 0.71484 0.33594 0.89844 0.61328 2.3867 3.668 6.5508 4.1367 10.469 4.8633-1.0508 0.57812-2.3828 0.44922-3.5547 0.64453-0.90625-0.015625-2.1445-0.5625-2.9648-0.23047-1.2891 0.67187-2.3711 0.003906-3.4297-0.39844-1.5664-0.69922-3.4062-0.60547-4.8281-1.8047-1.0352-0.69922-2.0508-1.4609-2.7773-2.5469-0.75-1.125-1.9688-0.94141-3.0742-1.1055-0.28516 1.5898 1.5273 1.332 1.8555 2.4883 0.28125 0.98438 1.7344 1.0234 2.5469 1.7617 1.6523 1.1836 3.9453 1.2734 5.9688 1.6758-0.50391 2.0664-2.2852-0.36719-3.6914 0.55469-0.19531 0.09375-0.53516 0.042968-0.74219-0.066407-2.4805-1.3047-5.8789-1.543-6.9141-4.6094-0.16016-0.85547-1.1094-0.65234-1.7695-0.80078-1.1562-0.375-1.3438-0.86719-0.80469-2.2422-2.1016-2.1367-1.9297-5.9062-5.0469-7.2617zm4.1016-0.039063c-0.84375 0.98828 0.77734 1.5039 0.17578 2.3242 0.32812 0.67969 1.2227 1.2344 0.54688 2.0039 0.45312 0.49609 1.1406 0.90234 1.2188 1.4062 0.19922 1.2539 1.2305 1.5469 2.0156 2.1328 0.50391 0.37891 0.80078 0.023438 1.0391-0.39453-0.27734-0.64453-0.375-1.5391-0.85937-1.8711-1.3047-0.89062-1.668-2.3633-2.5469-3.5-0.52344-0.68359-1.0391-1.375-1.5898-2.1016zm10.754 8.3438c-0.91016-0.32812-1.3125-0.80469-1.5352-1.5938-0.17578-0.62891-0.89062-1.2617-1.5195-1.5703-0.80859-0.39453-0.91406-1.1406-1.3516-1.7188-0.42969-0.56641-1.0898-0.96094-1.6641-1.4453-0.91016 0.14844-0.76953 0.71875-0.48437 1.3555-0.29297 0.089844-0.57813 0.18359-0.94141 0.29688 0.58984 0.30859 1.3359-0.027343 1.7188 0.72266 0.67969 0.79687 1.6953 1.4648 2.3125 2.3789 0.53125 0.66797 1.2969 1.0977 1.7383 1.8906 0.19531 0.34766 0.90625 0.40625 1.7266-0.31641zm-0.55469 0.98438c1.0078 1.6953 2.9688 2.9453 4.8125 3.0352-0.57813-2.0156-3.2383-0.82422-3.4805-3.3633-0.42969 0.10547-0.79297 0.19531-1.332 0.32813z" />
    <path
        d="m192.78 279.45c-0.37891 1.8906-1.8203 3.4453-0.87891 5.4023 0.37109 0.92969 0.83594 1.8672 0.34766 2.918-0.074219 0.15625-0.09375 0.47266 0 0.55469 0.83203 0.72266 0.58203 1.625 0.60547 2.5547 0.023437 0.90625 0.57031 1.7617 0.65234 2.7344 0.22266 2.7188 3.8203 3.0859 1.4922 5.9102 1.3438 1.3555 1.4141 1.6562 0.71875 3.3398 1.2031 1.4531 0.78516 3.1836 0.80859 5.125-0.46875-0.26172-0.89844-0.35547-1.0078-0.58984-0.88281-1.6992-0.92578-3.6445-2.0391-5.25-0.64844-0.75391-0.54688-1.6758 0.14062-2.3281-1.5312-1.0898-2.707-1.8359-1.8633-3.8867 0.38672-1.2734 0.03125-2.5156-0.66406-3.6133-0.3125-0.49219 0.082031-0.67969 0.24609-1.0977-0.19531-0.14844-0.58984-0.29297-0.60938-0.48047-0.12891-1.1719-1.3984-1.9609-1.082-3.2656-0.79688-1.4023-0.45313-3.1758-1.6445-4.5078-1.9375-2.6797 2.2969-5.2383 4.7773-3.5195z" />
    <path
        d="m319.68 297.91c-0.21875 1.0742-0.66016 1.9414-1.6953 2.3984 0.46094 1.3906-0.60156 2.3438-1.0312 3.4688-0.18359 0.48438-0.48047 1.0938-1.3438 0.90625-0.42969-1.7109 0.47266-3.3438 0.99219-4.8555-0.76953-1.2656 0.25391-1.9922 1.0742-2.8672-1.8125-2.9258 1.5156-2.8594 1.9375-5.5664 0.15625-1.4375 0.66797-2.8281 1.1758-4.1172-0.53125-1.0977 0.30078-1.7422 0.86328-2.5977-1.1836-1.8828 1.2148-3.3594 0.28906-5.418-1.8281-4.1875 3.1133-3.5117 5.1094-1.0742-0.11328 0.19531-0.19141 0.46484-0.36719 0.61328-1.9961 1.6289-2.3555 4.1836-2.832 6.4609-1.6445 0.57031-0.47266 2.5977-1.75 3.332-0.36328 1.2109-0.74219 2.4141-1.0859 3.6328-0.074219 2.8867 1.1719 3.8086-2.5 4.8008 0.4375 0.33203 0.78516 0.59766 1.1641 0.88281z" />
    <path
        d="m294.67 487.7c-0.52344 1.4844-0.52344 1.4844 0.5 2.4023 1.0391 0.80469 0.73828 1.9414-0.011719 2.8203 1.0938 1.3672 1.6719 2.8906 1.8047 4.4219 0.66406 0.64453 1.3125 1.1562 1.8047 1.7891 1.0469 1.4883 4.4805 2.6211 6.4844 2.9688-0.28516 1.5195-3.1133-0.26172-4.2266 0.59375-0.046875 0.023438-0.14453 0.015625-0.1875-0.015625-1.1523-1.0703-3.2969-0.45312-4.1875-1.7461 0.17188-0.86719-0.52344-0.61719-0.91406-0.79297-1.6055-0.56641-0.38281-1.9609-0.87109-3.0391-0.77344-1.0195-1.0508-2.1484-0.95313-3.3359-0.55078-0.29688-1.25-0.16016-1.2773-1.0312-0.007813-0.29297-0.53125-0.65234-0.89062-0.84375-0.87891-0.46875-1.4844-1.1602-2.0391-1.9688-0.62891-0.92188-0.51562-1.7891-0.10547-2.7109 0.41016-0.92578 1.2305-0.93359 2.082-1.0078 1.375-0.125 2.3047 0.49219 3.0273 1.5625z" />
    <path
        d="m208.5 486.66c0.97656-0.09375 1.7422-0.125 2.4922-0.24219 4.4844-0.17188 1.9844 5.3086-0.90625 5.9805-0.054688 0.41406-0.10938 0.83984-0.17188 1.3438-0.30469 0.11719-0.64453 0.24609-0.78516 0.29687-0.41406 1.2109-0.77734 2.2812-1.1953 3.5117 0.042968 0.59766 0.097656 1.3984 0.16016 2.2891-0.6875 0.13672-1.2344 0.24609-1.7812 0.35547 0.20312 0.71875 0.0625 1.3008-0.78125 1.3594-0.82422 0.058593-1.5273 0.24219-2.2578 0.71484-0.5625 0.36328-1.3555 0.71875-2.168 0.20703-0.24219-0.15234-0.70312 0.03125-1.0625 0.070313-0.61328 0.066406-1.2266 0.14453-2.2891 0.26953 0.49609-0.50391 0.66797-0.82812 0.84375-0.83203 1.4219-0.03125 2.5898-0.89844 3.9414-1.1367 0.52734-0.84766 1.7656-0.84766 2.1523-1.9531 0.23438-0.67188 0.77734-1.2969 1.3203-1.793 0.65234-0.59766-0.042969-1.4492 0.52734-2.0117 0.082032-0.078125 0.0625-0.25 0.125-0.35547 0.61328-0.98828 1.0312-2.0039 0.65625-3.207-0.32422-1.043 0.70703-1.4023 1.1797-2.082v-2.7852z" />
    <path
        d="m191.88 321.43c0.3125-0.074219 1.1641 0.19141 1.1758 0.26172-0.019532 1.1484 1.8711 1.293 1.3633 2.6445-0.015625 0.042968-0.097657 0.0625-0.28125 0.17578-0.875-0.91797-2.375-1.3789-2.2188-3.1211z" />
</svg>